<?xml version="1.0" encoding="utf-8"?>
<!-- Generator: Adobe Illustrator 25.4.1, SVG Export Plug-In . SVG Version: 6.00 Build 0)  -->
<svg version="1.1" id="Layer_1" xmlns="http://www.w3.org/2000/svg" xmlns:xlink="http://www.w3.org/1999/xlink" x="0px" y="0px"
	 viewBox="0 0 1783.6 1082.9" style="enable-background:new 0 0 1783.6 1082.9;" xml:space="preserve">
<image style="overflow:visible;" width="3120" height="4160" xlink:href="../../../Downloads/IMG_20241117_005937_120.jpg"  transform="matrix(0.5858 0 0 0.5858 -79.7962 -542.225)">
</image>
<path d="M1442.5,737.7c0,0,62.6,76.4,28.9,98.4c-33.7,22-15.8,34.4-121.1,37.8c-105.2,3.4-94.9-33-94.9-33s-12.4,48.8-88.7,59.2
	s-44,15.1-105.2,0s-11-101.1,47.5-145.1c2.6-2,5-3.5,6.8-5.1c36.5-32.2-70.5,57.1-66,58.7l66-58.7l9.7-44.4
	c0,0-60.1,25.7-128.4,17.9c-68.3-7.8-85.8,28.9-87.1,94c0,0,37.1-52.3,67-48.6c29.8,3.7,56.9-0.9,72-7.3
	c15.1-6.4-157,115.1-157,115.1s-70.5,40.4-61.3-65.6c9.2-105.9,22.9-371,22.9-371l-53.7,55.9c0,0-31.6,385.2-30.3,391.2
	s10.1,54.6,75.7,44.5S1041,819.1,1041,819.1s25.9-25.5,24.7-23.7c-7.9,12.7-11.4,62.6,17.5,59c28.9-3.7,95.4,6,165.6-83
	c0,0,22.9,58.2,69.7,56.9s78.4,8.3,96.3-25.2l-16.1-32.1L1442.5,737.7z"/>
<polygon points="1345.8,702.8 1381.3,728.5 1354,757.1 1318.5,734.4 "/>
<polygon points="738.8,534.7 709,923.6 653,928.2 676.2,603.1 "/>
<polygon points="605.4,661.3 587,928.2 528.3,932.8 540.7,730 "/>
<path d="M1001.6,879.6c0,0,8.3,28.4,27.5,28.4l-29.4,30.3l-28.7-29.4L1001.6,879.6z"/>
<polygon points="1015.8,551.7 1093.3,472.8 999.7,482.9 1085.5,548 1041,439.8 "/>
</svg>
